<svg width="185" height="46.21" viewBox="0 0 466 117" fill="none" xmlns="http://www.w3.org/2000/svg">
<path d="M45.2317 71.9235C28.0601 71.9235 14.0915 58.7685 14.0915 42.597C14.0915 26.4256 28.0601 13.2706 45.2317 13.2706C62.4033 13.2706 76.3719 26.4256 76.3719 42.597C76.3719 58.7685 62.4033 71.9235 45.2317 71.9235ZM88.2366 29.0969C84.0615 16.3834 73.0666 6.02874 59.5667 2.09701C54.8348 0.720512 49.9637 -8.51655e-05 45.2317 -8.51655e-05C35.559 -8.51655e-05 26.2346 2.81781 18.4408 8.32297C6.88894 16.3179 0 29.0969 0 42.597C0 51.9026 3.13149 60.7502 9.04634 68.1555L45.2317 111.845L81.4171 68.1555C90.2544 57.0145 92.7597 42.7939 88.2366 29.0969Z" fill="white"/>
<path d="M26.6387 38.5605H27.018V37.0437H26.6387V38.5605Z" fill="white"/>
<path d="M31.7589 37.0437H30.4316V38.5605H31.7589V37.0437Z" fill="white"/>
<path d="M28.5234 43.3423V55.4351H30.4194V41.2277C29.3534 41.3431 28.5234 42.2455 28.5234 43.3423Z" fill="white"/>
<path d="M62.4685 55.4346V43.2813C62.4685 42.1394 61.5428 41.2139 60.4011 41.2139H60.3828V55.4346H62.4685Z" fill="white"/>
<path d="M32.1199 26.9944H58.8582C60.0586 26.9944 61.0318 28.0419 61.0318 29.3338V29.5542H61.0449V23.0993C61.0449 21.8471 60.102 20.8321 58.9385 20.8321H32.0656C30.8967 20.8321 29.9492 21.8519 29.9492 23.1099V29.0911C30.0669 27.9123 30.9934 26.9944 32.1199 26.9944Z" fill="white"/>
<path d="M59.0606 37.0434H60.3878V32.3298C60.3878 30.4302 58.8481 28.8903 56.9484 28.8903H33.8856C31.9769 28.8903 30.4297 30.4375 30.4297 32.3462V37.0434H31.7569V38.5603H30.4297V41.228C30.5058 41.2197 30.583 41.2149 30.6614 41.2149H33.6531V33.2494C33.6531 32.5173 34.2464 31.924 34.9784 31.924H56.417C57.1441 31.924 57.7334 32.5134 57.7334 33.2402V41.2149H60.3878V38.5603H59.0606V37.0434Z" fill="white"/>
<path d="M58.8712 51.6434C58.8712 52.5858 57.5554 53.3499 55.9323 53.3499C54.3091 53.3499 52.9933 52.5858 52.9933 51.6434C52.9933 50.7009 54.3091 49.9368 55.9323 49.9368C57.5554 49.9368 58.8712 50.7009 58.8712 51.6434ZM52.0452 46.7136H38.7727V44.628H52.0452V46.7136ZM52.0452 49.9751H38.7727V47.8894H52.0452V49.9751ZM52.0261 53.3499H38.7536V51.2642H52.0261V53.3499ZM34.696 53.3499C33.0729 53.3499 31.7571 52.5858 31.7571 51.6434C31.7571 50.7009 33.0729 49.9368 34.696 49.9368C36.3192 49.9368 37.6349 50.7009 37.6349 51.6434C37.6349 52.5858 36.3192 53.3499 34.696 53.3499ZM33.6531 41.2149H30.6616C30.5832 41.2149 30.506 41.2197 30.4297 41.228V55.4355H60.3881V41.2149H57.7334H33.6531Z" fill="white"/>
<path d="M28.5254 58.5592C28.5254 59.6614 29.419 60.5552 30.5214 60.5552H60.4835C61.5782 60.5552 62.4654 59.6678 62.4654 58.5733V56.763H28.5254V58.5592Z" fill="white"/>
<path d="M31.75 64.7812C31.75 66.0071 32.7438 67.001 33.9698 67.001H35.8252C37.0304 67.001 38.0072 66.0242 38.0072 64.819V61.3126H31.75V64.7812Z" fill="white"/>
<path d="M52.7949 64.7812C52.7949 66.0071 53.7888 67.001 55.0147 67.001H56.8701C58.0753 67.001 59.0521 66.0242 59.0521 64.819V61.3126H52.7949V64.7812Z" fill="white"/>
<path d="M27.0072 37.0417V33.6289H25.1716C23.9864 33.6289 23.0254 34.5896 23.0254 35.775V36.6218C23.0254 37.6916 23.8924 38.5586 24.9621 38.5586H26.6279V37.0417H27.0072Z" fill="white"/>
<path d="M27.0117 38.5601H30.4246V37.0432H27.0117V38.5601Z" fill="white"/>
<path d="M65.6326 33.6303H63.7969V37.0432H64.1762V38.5601H65.842C66.9115 38.5601 67.7787 37.6931 67.7787 36.6235V35.7765C67.7787 34.5911 66.8179 33.6303 65.6326 33.6303Z" fill="white"/>
<path d="M60.377 38.5601H63.79V37.0432H60.377V38.5601Z" fill="white"/>
<path d="M59.0508 38.5601H60.378V37.0432H59.0508V38.5601Z" fill="white"/>
<path d="M63.7988 38.5601H64.1779V37.0432H63.7988V38.5601Z" fill="white"/>
<path d="M123.053 85.3384V35.7561H131.744L149.865 68.8675V35.7561H158.188V85.3384H149.202L131.376 53.0051V85.3384H123.053Z" fill="white"/>
<path d="M191.147 64.3021C191.073 61.4948 190.422 59.3841 189.195 57.969C187.967 56.5543 186.506 55.8467 184.812 55.8467C183.02 55.8467 181.51 56.5828 180.282 58.0539C179.03 59.5486 178.416 61.6313 178.44 64.3021H191.147ZM190.705 73.9412L199.139 75.5307C198.007 79.1384 196.25 81.8163 193.865 83.5633C191.481 85.311 188.58 86.1846 185.163 86.1846C180.418 86.1846 176.755 84.7277 174.174 81.8136C171.125 78.4257 169.602 73.6821 169.602 67.5832C169.602 61.5746 171.136 56.7635 174.205 53.1493C176.807 50.1003 180.172 48.5751 184.297 48.5751C188.888 48.5751 192.485 50.1336 195.088 53.2498C198.083 56.8181 199.581 62.08 199.581 69.0357L199.544 70.1191H178.293C178.342 72.9714 179.038 75.1782 180.38 76.7399C181.722 78.3014 183.341 79.0819 185.238 79.0819C187.971 79.0819 189.793 77.3688 190.705 73.9412" fill="white"/>
<path d="M225.649 49.4206V56.9968H219.867V71.4954C219.867 74.6345 219.952 76.4524 220.125 76.9491C220.468 77.8527 221.168 78.304 222.224 78.304C223.009 78.304 224.139 77.9997 225.612 77.3909L226.349 84.764C224.384 85.7111 222.162 86.1846 219.683 86.1846C217.522 86.1846 215.791 85.7106 214.49 84.7624C213.188 83.8143 212.317 82.4488 211.875 80.6654C211.531 79.3563 211.359 76.6924 211.359 72.674V56.9968H207.455V49.4206H211.359V42.2843L219.867 36.7377V49.4206H225.649Z" fill="white"/>
<path d="M250.762 49.4206V56.9968H244.98V71.4954C244.98 74.6345 245.066 76.4524 245.238 76.9491C245.581 77.8527 246.281 78.304 247.337 78.304C248.123 78.304 249.252 77.9997 250.725 77.3909L251.462 84.764C249.498 85.7111 247.276 86.1846 244.796 86.1846C242.635 86.1846 240.904 85.7106 239.603 84.7624C238.301 83.8143 237.43 82.4488 236.988 80.6654C236.644 79.3563 236.472 76.6924 236.472 72.674V56.9968H232.568V49.4206H236.472V42.2843L244.98 36.7377V49.4206H250.762Z" fill="#AE0508"/>
<path d="M269.361 85.3394H260.854V49.421H268.735V54.5282C270.085 52.1384 271.295 50.5487 272.363 49.7592C273.431 48.9704 274.665 48.5754 276.064 48.5754C278.003 48.5754 279.858 49.1732 281.625 50.368L278.974 58.6542C277.574 57.6174 276.248 57.0984 274.996 57.0984C273.817 57.0984 272.78 57.4997 271.884 58.3007C270.987 59.1018 270.343 60.5526 269.95 62.6521C269.557 64.7515 269.361 68.612 269.361 74.2327V85.3394Z" fill="white"/>
<path d="M307.472 68.0902C306.391 68.4972 304.709 68.9723 302.426 69.5151C299.799 70.148 298.08 70.8493 297.27 71.6181C296.46 72.3871 296.054 73.3822 296.054 74.6034C296.054 75.9827 296.502 77.1416 297.399 78.0801C298.295 79.0186 299.418 79.4881 300.769 79.4881C301.971 79.4881 303.163 79.1098 304.341 78.3518C305.52 77.594 306.336 76.695 306.79 75.6552C307.244 74.6152 307.472 72.7264 307.472 69.99V68.0902ZM296.128 60.3449L288.431 58.7891C289.364 55.1592 290.904 52.5493 293.053 50.9598C295.201 49.3701 298.288 48.5753 302.315 48.5753C305.9 48.5753 308.637 49.0383 310.529 49.9634C312.419 50.8887 313.77 52.147 314.58 53.7378C315.39 55.3289 315.795 58.2232 315.795 62.4208L315.722 73.5244C315.722 76.6392 315.856 78.9585 316.127 80.4814C316.397 82.0049 316.9 83.6243 317.637 85.3391H309.24L308.135 81.4158C306.686 82.9942 305.133 84.1839 303.476 84.9839C301.818 85.7841 300.056 86.1846 298.191 86.1846C295.072 86.1846 292.519 85.2197 290.53 83.2892C288.541 81.3588 287.547 78.7904 287.547 75.5837C287.547 73.5518 287.952 71.7793 288.762 70.2664C289.573 68.754 290.714 67.5458 292.187 66.6427C293.66 65.7397 296.018 64.938 299.259 64.2377C303.187 63.4027 305.925 62.6238 307.472 61.9009C307.472 59.9053 307.318 58.5964 307.011 57.9729C306.704 57.3493 306.139 56.8394 305.317 56.4425C304.494 56.0457 303.334 55.8469 301.837 55.8469C300.314 55.8469 299.117 56.1628 298.246 56.7937C297.374 57.4254 296.668 58.6092 296.128 60.3449" fill="white"/>
<path d="M356.707 60.0073L348.347 61.6984C347.729 57.933 345.79 56.0502 342.531 56.0502C340.432 56.0502 338.74 56.8645 337.456 58.4928C336.171 60.1215 335.53 62.869 335.53 66.7361C335.53 71.0108 336.17 74.03 337.45 75.794C338.731 77.5581 340.442 78.44 342.584 78.44C344.184 78.44 345.501 77.9384 346.536 76.9349C347.57 75.9319 348.309 74.1563 348.752 71.608L357.112 73.1977C355.393 81.8559 350.446 86.1851 342.27 86.1851C337.04 86.1851 333.16 84.3555 330.632 80.6965C328.102 77.0375 326.838 72.6322 326.838 67.482C326.838 61.3156 328.27 56.623 331.134 53.404C333.997 50.1854 337.753 48.5756 342.399 48.5756C346.16 48.5756 349.227 49.4888 351.6 51.315C353.972 53.1415 355.674 56.0391 356.707 60.0073Z" fill="white"/>
<path d="M367.354 85.3408V35.7585H375.861V62.031L385.783 49.4224H396.246L385.27 62.5693L397.02 85.3408H387.892L379.756 69.1753L375.861 73.8415V85.3408H367.354Z" fill="white"/>
<path d="M425.653 64.3021C425.579 61.4948 424.928 59.3841 423.701 57.969C422.473 56.5543 421.012 55.8467 419.318 55.8467C417.525 55.8467 416.015 56.5828 414.788 58.0539C413.536 59.5486 412.922 61.6313 412.946 64.3021H425.653ZM425.211 73.9412L433.644 75.5307C432.513 79.1384 430.756 81.8163 428.371 83.5633C425.986 85.311 423.086 86.1846 419.669 86.1846C414.924 86.1846 411.261 84.7277 408.68 81.8136C405.631 78.4257 404.107 73.6821 404.107 67.5832C404.107 61.5746 405.641 56.7635 408.711 53.1493C411.313 50.1003 414.677 48.5751 418.802 48.5751C423.393 48.5751 426.991 50.1336 429.593 53.2498C432.589 56.8181 434.086 62.08 434.086 69.0357L434.05 70.1191H412.799C412.848 72.9714 413.544 75.1782 414.886 76.7399C416.228 78.3014 417.847 79.0819 419.744 79.0819C422.477 79.0819 424.299 77.3688 425.211 73.9412" fill="white"/>
<path d="M453.633 85.3394H445.125V49.421H453.007V54.5282C454.356 52.1384 455.566 50.5487 456.634 49.7592C457.702 48.9704 458.936 48.5754 460.336 48.5754C462.275 48.5754 464.129 49.1732 465.897 50.368L463.245 58.6542C461.845 57.6174 460.52 57.0984 459.267 57.0984C458.089 57.0984 457.051 57.4997 456.155 58.3007C455.259 59.1018 454.614 60.5526 454.222 62.6521C453.829 64.7515 453.633 68.612 453.633 74.2327V85.3394Z" fill="white"/>
<path d="M123.061 105.769L126.073 105.442C126.412 107.629 127.523 108.722 129.404 108.722C130.336 108.722 131.069 108.498 131.603 108.051C132.137 107.604 132.404 107.05 132.404 106.388C132.404 105.999 132.311 105.669 132.124 105.397C131.938 105.124 131.654 104.901 131.273 104.726C130.891 104.551 129.967 104.257 128.501 103.845C127.188 103.48 126.226 103.084 125.616 102.656C125.006 102.229 124.52 101.667 124.16 100.971C123.8 100.275 123.62 99.5264 123.62 98.7254C123.62 97.7923 123.851 96.9523 124.313 96.2057C124.775 95.4593 125.412 94.8956 126.226 94.5145C127.04 94.1335 128.044 93.9431 129.239 93.9431C131.035 93.9431 132.438 94.3906 133.446 95.2854C134.455 96.1805 134.989 97.4608 135.048 99.1262L131.959 99.2779C131.824 98.3597 131.531 97.7176 131.082 97.3517C130.633 96.986 129.993 96.8031 129.163 96.8031C128.332 96.8031 127.692 96.9621 127.243 97.28C126.793 97.5984 126.569 97.9942 126.569 98.4673C126.569 98.9327 126.773 99.3246 127.181 99.6428C127.588 99.9608 128.525 100.311 129.991 100.692C131.542 101.105 132.662 101.539 133.352 101.994C134.043 102.449 134.57 103.037 134.934 103.756C135.298 104.476 135.481 105.35 135.481 106.377C135.481 107.863 134.982 109.112 133.987 110.123C132.991 111.135 131.433 111.641 129.315 111.641C125.569 111.641 123.484 109.683 123.061 105.769Z" fill="white"/>
<path d="M141.934 105.149C141.934 106.406 142.201 107.356 142.736 108C143.271 108.644 143.917 108.966 144.673 108.966C145.412 108.966 146.045 108.642 146.572 107.994C147.099 107.346 147.362 106.39 147.362 105.125C147.362 103.892 147.094 102.952 146.559 102.303C146.024 101.656 145.383 101.331 144.635 101.331C143.896 101.331 143.261 101.656 142.73 102.303C142.199 102.952 141.934 103.9 141.934 105.149ZM138.934 104.973C138.934 103.757 139.196 102.65 139.722 101.652C140.247 100.654 140.934 99.906 141.781 99.4069C142.629 98.9078 143.582 98.6582 144.641 98.6582C146.421 98.6582 147.819 99.2995 148.837 100.582C149.853 101.865 150.362 103.364 150.362 105.079C150.362 106.357 150.097 107.511 149.568 108.54C149.038 109.57 148.343 110.344 147.483 110.862C146.622 111.38 145.679 111.64 144.654 111.64C143.01 111.64 141.646 111.063 140.561 109.909C139.476 108.755 138.934 107.11 138.934 104.973" fill="white"/>
<path d="M154.227 94.2342H157.163V111.348H154.227V94.2342Z" fill="white"/>
<path d="M168.98 111.348V109.493C168.573 110.166 168.041 110.692 167.381 111.071C166.721 111.45 166.031 111.64 165.312 111.64C164.584 111.64 163.933 111.464 163.358 111.114C162.782 110.763 162.353 110.265 162.07 109.618C161.786 108.972 161.645 108.033 161.645 106.802V98.95H164.581V104.647C164.581 106.274 164.626 107.307 164.714 107.746C164.803 108.186 164.999 108.527 165.304 108.768C165.608 109.009 165.975 109.13 166.406 109.13C166.896 109.13 167.348 108.972 167.762 108.657C168.176 108.342 168.449 107.937 168.58 107.443C168.711 106.949 168.776 105.861 168.776 104.18V98.95H171.713V111.348H168.98Z" fill="white"/>
<path d="M177.968 116.064V114.686C178.68 114.772 179.336 114.815 179.938 114.815C180.515 114.815 180.947 114.711 181.235 114.505C181.523 114.299 181.667 114.036 181.667 113.717C181.667 113.429 181.551 113.194 181.317 113.011C181.084 112.828 180.756 112.737 180.332 112.737C179.892 112.737 179.438 112.814 178.972 112.97L179.239 111.803C179.781 111.592 180.375 111.487 181.019 111.487C181.815 111.487 182.453 111.692 182.932 112.102C183.411 112.512 183.65 113.044 183.65 113.699C183.65 114.448 183.332 115.061 182.697 115.537C182.061 116.013 181.163 116.25 180.002 116.25C179.104 116.25 178.426 116.188 177.968 116.064ZM185.989 102.604L183.104 103.187C182.891 101.888 182.221 101.238 181.096 101.238C180.372 101.238 179.788 101.519 179.345 102.081C178.901 102.643 178.68 103.591 178.68 104.926C178.68 106.402 178.901 107.444 179.343 108.053C179.784 108.662 180.375 108.966 181.115 108.966C181.667 108.966 182.122 108.793 182.479 108.446C182.836 108.1 183.091 107.487 183.243 106.608L186.129 107.157C185.536 110.145 183.828 111.639 181.006 111.639C179.201 111.639 177.862 111.008 176.989 109.745C176.116 108.482 175.68 106.961 175.68 105.184C175.68 103.055 176.174 101.435 177.162 100.325C178.151 99.2137 179.447 98.6579 181.051 98.6579C182.349 98.6579 183.408 98.973 184.226 99.6035C185.045 100.234 185.633 101.234 185.989 102.604Z" fill="white"/>
<path d="M192.078 105.15C192.078 106.407 192.346 107.357 192.881 108.001C193.416 108.645 194.062 108.967 194.818 108.967C195.557 108.967 196.189 108.643 196.716 107.995C197.243 107.347 197.506 106.391 197.506 105.126C197.506 103.893 197.238 102.953 196.703 102.304C196.168 101.657 195.527 101.332 194.78 101.332C194.04 101.332 193.405 101.657 192.874 102.304C192.344 102.953 192.078 103.901 192.078 105.15ZM192.536 97.2699H191.201L191.188 96.8863C191.188 96.0335 191.369 95.3921 191.73 94.9618C192.091 94.5317 192.547 94.3163 193.099 94.3163C193.337 94.3163 193.562 94.3477 193.775 94.4097C193.987 94.4722 194.331 94.62 194.806 94.8536C195.435 95.1648 195.902 95.3204 196.208 95.3204C196.692 95.3204 196.976 94.9819 197.061 94.3049H198.396C198.388 95.3634 198.212 96.1163 197.87 96.5637C197.527 97.0114 197.085 97.235 196.544 97.235C196.316 97.235 196.092 97.2078 195.872 97.1531C195.711 97.1144 195.339 96.9706 194.756 96.7212C194.054 96.4177 193.555 96.266 193.259 96.266C193.047 96.266 192.876 96.3411 192.745 96.491C192.614 96.641 192.544 96.9007 192.536 97.2699ZM189.078 104.974C189.078 103.758 189.341 102.651 189.866 101.653C190.391 100.655 191.078 99.907 191.926 99.4079C192.773 98.9087 193.726 98.6592 194.786 98.6592C196.566 98.6592 197.964 99.3004 198.981 100.583C199.998 101.866 200.506 103.365 200.506 105.08C200.506 106.358 200.241 107.512 199.712 108.541C199.182 109.57 198.487 110.345 197.627 110.863C196.767 111.381 195.824 111.641 194.799 111.641C193.154 111.641 191.79 111.064 190.705 109.91C189.62 108.756 189.078 107.111 189.078 104.974" fill="white"/>
<path d="M210.95 104.088C210.925 103.119 210.7 102.39 210.277 101.902C209.853 101.413 209.348 101.169 208.764 101.169C208.145 101.169 207.624 101.423 207.2 101.931C206.768 102.447 206.556 103.166 206.565 104.088H210.95ZM210.798 107.415L213.709 107.963C213.318 109.209 212.712 110.133 211.889 110.736C211.065 111.339 210.064 111.641 208.885 111.641C207.247 111.641 205.983 111.138 205.092 110.132C204.04 108.963 203.514 107.325 203.514 105.22C203.514 103.146 204.043 101.486 205.103 100.238C206.001 99.1855 207.162 98.6594 208.586 98.6594C210.17 98.6594 211.412 99.1971 212.31 100.273C213.344 101.504 213.861 103.321 213.861 105.721L213.849 106.096H206.514C206.53 107.08 206.771 107.842 207.234 108.381C207.697 108.92 208.256 109.189 208.911 109.189C209.854 109.189 210.483 108.598 210.798 107.415" fill="white"/>
<path d="M216.781 107.822L219.718 107.32C219.972 108.62 220.76 109.27 222.082 109.27C222.786 109.27 223.311 109.145 223.659 108.896C224.006 108.647 224.18 108.324 224.18 107.927C224.18 107.654 224.104 107.44 223.951 107.284C223.79 107.128 223.471 106.992 222.994 106.876C220.59 106.289 219.061 105.729 218.409 105.199C217.595 104.536 217.188 103.627 217.188 102.473C217.188 101.318 217.586 100.394 218.383 99.6995C219.18 99.0052 220.336 98.6582 221.853 98.6582C223.303 98.6582 224.404 98.9171 225.159 99.4345C225.913 99.9521 226.443 100.787 226.748 101.939L223.989 102.511C223.743 101.515 223.048 101.016 221.904 101.016C221.184 101.016 220.671 101.112 220.366 101.303C220.061 101.494 219.908 101.742 219.908 102.046C219.908 102.319 220.048 102.545 220.328 102.725C220.607 102.912 221.475 103.194 222.932 103.573C224.567 103.998 225.677 104.51 226.263 105.11C226.84 105.71 227.129 106.508 227.129 107.505C227.129 108.704 226.682 109.693 225.788 110.471C224.894 111.25 223.659 111.64 222.082 111.64C220.65 111.64 219.48 111.315 218.574 110.665C217.667 110.015 217.069 109.068 216.781 107.822Z" fill="white"/>
<path d="M245.319 104.088C245.294 103.119 245.069 102.39 244.646 101.902C244.222 101.413 243.718 101.169 243.133 101.169C242.514 101.169 241.993 101.423 241.569 101.931C241.137 102.447 240.925 103.166 240.934 104.088H245.319ZM245.167 107.415L248.078 107.963C247.687 109.209 247.081 110.133 246.258 110.736C245.435 111.339 244.434 111.641 243.254 111.641C241.616 111.641 240.352 111.138 239.461 110.132C238.409 108.963 237.883 107.325 237.883 105.22C237.883 103.146 238.412 101.486 239.472 100.238C240.37 99.1855 241.531 98.6594 242.955 98.6594C244.54 98.6594 245.781 99.1971 246.68 100.273C247.713 101.504 248.231 103.321 248.231 105.721L248.218 106.096H240.883C240.9 107.08 241.14 107.842 241.603 108.381C242.066 108.92 242.625 109.189 243.28 109.189C244.224 109.189 244.852 108.598 245.167 107.415" fill="white"/>
<path d="M251.943 98.9488H254.638V100.642C255.121 99.9801 255.651 99.4841 256.227 99.1533C256.804 98.8225 257.427 98.657 258.096 98.657C258.808 98.657 259.425 98.8205 259.946 99.1474C260.467 99.4743 260.893 99.9686 261.223 100.63C261.715 99.9686 262.242 99.4743 262.806 99.1474C263.369 98.8205 263.969 98.657 264.605 98.657C265.359 98.657 266.009 98.8227 266.556 99.1537C267.103 99.4849 267.518 99.958 267.802 100.573C268.086 101.189 268.228 102.135 268.228 103.413V111.347H265.291V104.252C265.291 103.014 265.172 102.19 264.935 101.78C264.698 101.372 264.3 101.167 263.74 101.167C263.088 101.167 262.562 101.453 262.164 102.026C261.765 102.599 261.567 103.719 261.567 105.386V111.347H258.63V104.545C258.63 103.197 258.549 102.328 258.388 101.938C258.177 101.424 257.748 101.167 257.105 101.167C256.672 101.167 256.274 101.3 255.91 101.564C255.545 101.829 255.282 102.217 255.121 102.727C254.96 103.238 254.88 104.101 254.88 105.316V111.347H251.943V98.9488Z" fill="white"/>
<path d="M283.671 111.348V97.1295H279.133V94.2342H291.273V97.1295H286.747V111.348H283.671Z" fill="white"/>
<path d="M299.837 104.088C299.812 103.119 299.587 102.39 299.163 101.902C298.74 101.413 298.235 101.169 297.65 101.169C297.032 101.169 296.511 101.423 296.087 101.931C295.655 102.447 295.443 103.166 295.451 104.088H299.837ZM299.685 107.415L302.596 107.963C302.205 109.209 301.599 110.133 300.775 110.736C299.952 111.339 298.951 111.641 297.772 111.641C296.134 111.641 294.87 111.138 293.979 110.132C292.926 108.963 292.4 107.325 292.4 105.22C292.4 103.146 292.93 101.486 293.989 100.238C294.888 99.1855 296.049 98.6594 297.472 98.6594C299.057 98.6594 300.299 99.1971 301.197 100.273C302.231 101.504 302.748 103.321 302.748 105.721L302.735 106.096H295.4C295.417 107.08 295.657 107.842 296.121 108.381C296.584 108.92 297.143 109.189 297.798 109.189C298.741 109.189 299.37 108.598 299.685 107.415" fill="white"/>
<path d="M316.35 102.604L313.465 103.188C313.252 101.888 312.582 101.238 311.457 101.238C310.733 101.238 310.149 101.519 309.706 102.081C309.262 102.643 309.041 103.592 309.041 104.926C309.041 106.402 309.262 107.444 309.704 108.053C310.146 108.662 310.736 108.966 311.476 108.966C312.028 108.966 312.483 108.793 312.84 108.447C313.197 108.101 313.452 107.488 313.605 106.608L316.49 107.157C315.897 110.145 314.189 111.64 311.367 111.64C309.562 111.64 308.223 111.008 307.35 109.745C306.477 108.482 306.041 106.962 306.041 105.184C306.041 103.056 306.535 101.436 307.524 100.325C308.512 99.214 309.808 98.6582 311.412 98.6582C312.71 98.6582 313.769 98.9734 314.588 99.6038C315.406 100.234 315.994 101.234 316.35 102.604Z" fill="white"/>
<path d="M330.193 111.347H327.257V105.012C327.257 103.742 327.201 102.897 327.091 102.476C326.981 102.055 326.775 101.732 326.475 101.506C326.174 101.28 325.833 101.167 325.451 101.167C324.96 101.167 324.515 101.313 324.117 101.605C323.718 101.898 323.438 102.301 323.278 102.815C323.116 103.329 323.036 104.299 323.036 105.725V111.347H320.1V98.9488H322.82V100.758C323.303 100.058 323.848 99.5326 324.453 99.1825C325.059 98.8323 325.731 98.6572 326.468 98.6572C327.324 98.6572 328.047 98.8617 328.636 99.2705C329.225 99.6796 329.632 100.206 329.856 100.848C330.081 101.491 330.193 102.42 330.193 103.635V111.347Z" fill="white"/>
<path d="M337.043 105.147C337.043 106.404 337.311 107.355 337.846 107.999C338.381 108.643 339.027 108.965 339.782 108.965C340.521 108.965 341.154 108.641 341.681 107.993C342.208 107.345 342.471 106.389 342.471 105.124C342.471 103.891 342.203 102.95 341.668 102.302C341.133 101.654 340.492 101.33 339.745 101.33C339.005 101.33 338.37 101.654 337.839 102.302C337.308 102.95 337.043 103.899 337.043 105.147ZM334.043 104.972C334.043 103.756 334.306 102.649 334.831 101.651C335.356 100.653 336.043 99.9045 336.89 99.4054C337.738 98.9063 338.691 98.6567 339.751 98.6567C341.531 98.6567 342.929 99.298 343.946 100.581C344.963 101.863 345.471 103.362 345.471 105.077C345.471 106.356 345.206 107.51 344.677 108.539C344.147 109.568 343.452 110.342 342.592 110.86C341.732 111.379 340.789 111.638 339.763 111.638C338.119 111.638 336.755 111.061 335.67 109.907C334.585 108.753 334.043 107.108 334.043 104.972" fill="white"/>
<path d="M349.334 94.2342H352.271V111.348H349.334V94.2342Z" fill="white"/>
<path d="M359.147 105.15C359.147 106.407 359.414 107.357 359.949 108.001C360.484 108.645 361.13 108.967 361.886 108.967C362.625 108.967 363.258 108.643 363.785 107.995C364.311 107.347 364.575 106.391 364.575 105.126C364.575 103.893 364.307 102.953 363.772 102.304C363.237 101.657 362.595 101.332 361.848 101.332C361.109 101.332 360.474 101.657 359.943 102.304C359.412 102.953 359.147 103.901 359.147 105.15ZM356.146 104.974C356.146 103.758 356.409 102.651 356.935 101.653C357.46 100.655 358.146 99.907 358.994 99.4078C359.841 98.9087 360.795 98.6592 361.854 98.6592C363.634 98.6592 365.032 99.3004 366.049 100.583C367.066 101.866 367.575 103.365 367.575 105.08C367.575 106.358 367.31 107.512 366.78 108.541C366.25 109.57 365.555 110.345 364.695 110.863C363.835 111.381 362.892 111.641 361.867 111.641C360.223 111.641 358.858 111.064 357.774 109.91C356.689 108.756 356.146 107.111 356.146 104.974" fill="white"/>
<path d="M373.776 104.887C373.776 106.212 374.006 107.178 374.468 107.786C374.93 108.394 375.487 108.698 376.14 108.698C376.843 108.698 377.445 108.39 377.945 107.775C378.445 107.159 378.695 106.223 378.695 104.968C378.695 103.675 378.456 102.718 377.977 102.098C377.498 101.479 376.907 101.169 376.203 101.169C375.509 101.169 374.93 101.473 374.468 102.081C374.006 102.689 373.776 103.624 373.776 104.887ZM371.157 112.166L374.513 112.621C374.564 113.072 374.718 113.393 374.977 113.584C375.235 113.774 375.644 113.87 376.203 113.87C376.848 113.87 377.369 113.772 377.767 113.578C378.047 113.438 378.263 113.205 378.415 112.878C378.568 112.551 378.644 111.975 378.644 111.15V109.34C378.204 110.01 377.708 110.512 377.157 110.846C376.606 111.181 375.996 111.348 375.326 111.348C374.098 111.348 373.064 110.838 372.225 109.817C371.258 108.649 370.775 107.068 370.775 105.074C370.775 102.955 371.231 101.356 372.142 100.277C373.053 99.1983 374.157 98.6588 375.454 98.6588C376.14 98.6588 376.765 98.8279 377.329 99.1666C377.892 99.5051 378.394 100.013 378.835 100.69V98.9506H381.581V110.076C381.581 111.858 381.403 113.15 381.047 113.952C380.691 114.753 380.142 115.358 379.401 115.767C378.659 116.175 377.632 116.38 376.318 116.38C375.106 116.38 374.136 116.232 373.407 115.936C372.678 115.64 372.121 115.199 371.735 114.611C371.349 114.023 371.157 113.344 371.157 112.574V112.166Z" fill="white"/>
<path d="M386.043 98.9503H388.98V111.348H386.043V98.9503ZM386.043 94.234H388.98V97.2692H386.043V94.234Z" fill="white"/>
<path d="M399.635 105.394C399.262 105.534 398.682 105.698 397.894 105.886C396.987 106.104 396.393 106.346 396.114 106.612C395.834 106.877 395.694 107.221 395.694 107.642C395.694 108.118 395.849 108.518 396.158 108.842C396.468 109.166 396.855 109.328 397.321 109.328C397.737 109.328 398.148 109.198 398.555 108.936C398.962 108.674 399.243 108.364 399.4 108.005C399.557 107.646 399.635 106.994 399.635 106.05V105.394ZM395.72 102.721L393.063 102.184C393.385 100.931 393.917 100.03 394.658 99.4812C395.4 98.9325 396.466 98.6582 397.855 98.6582C399.093 98.6582 400.037 98.8178 400.69 99.1374C401.343 99.4568 401.809 99.891 402.089 100.44C402.368 100.989 402.508 101.988 402.508 103.437L402.483 107.27C402.483 108.345 402.529 109.146 402.623 109.671C402.716 110.197 402.889 110.756 403.144 111.348H400.245L399.864 109.993C399.364 110.538 398.828 110.949 398.256 111.225C397.684 111.501 397.076 111.64 396.432 111.64C395.355 111.64 394.474 111.306 393.787 110.64C393.101 109.974 392.758 109.087 392.758 107.98C392.758 107.279 392.898 106.667 393.177 106.145C393.457 105.623 393.851 105.206 394.36 104.894C394.868 104.583 395.682 104.306 396.8 104.064C398.156 103.776 399.101 103.507 399.635 103.258C399.635 102.569 399.582 102.117 399.476 101.902C399.37 101.687 399.175 101.511 398.891 101.374C398.607 101.237 398.207 101.168 397.69 101.168C397.165 101.168 396.751 101.277 396.451 101.495C396.15 101.713 395.906 102.121 395.72 102.721" fill="white"/>
<path d="M405.941 107.822L408.878 107.32C409.132 108.62 409.92 109.27 411.242 109.27C411.946 109.27 412.471 109.145 412.819 108.896C413.166 108.647 413.34 108.324 413.34 107.927C413.34 107.654 413.264 107.44 413.111 107.284C412.95 107.128 412.631 106.992 412.155 106.876C409.75 106.289 408.221 105.729 407.569 105.199C406.755 104.536 406.348 103.627 406.348 102.473C406.348 101.318 406.747 100.394 407.543 99.6995C408.34 99.0052 409.496 98.6582 411.013 98.6582C412.463 98.6582 413.564 98.9171 414.319 99.4345C415.073 99.9521 415.603 100.787 415.908 101.939L413.149 102.511C412.903 101.515 412.208 101.016 411.064 101.016C410.344 101.016 409.831 101.112 409.526 101.303C409.221 101.494 409.069 101.742 409.069 102.046C409.069 102.319 409.208 102.545 409.488 102.725C409.767 102.912 410.635 103.194 412.092 103.573C413.727 103.998 414.837 104.51 415.423 105.11C416 105.71 416.289 106.508 416.289 107.505C416.289 108.704 415.842 109.693 414.948 110.471C414.054 111.25 412.819 111.64 411.242 111.64C409.81 111.64 408.641 111.315 407.734 110.665C406.827 110.015 406.23 109.068 405.941 107.822Z" fill="white"/>
</svg>
